
<svg width="512" height="512" viewBox="0 0 512 512" xmlns="http://www.w3.org/2000/svg">
  <defs>
    <linearGradient id="grad1" x1="0%" y1="0%" x2="100%" y2="100%">
      <stop offset="0%" style="stop-color:#3b82f6;stop-opacity:1" />
      <stop offset="100%" style="stop-color:#1d4ed8;stop-opacity:1" />
    </linearGradient>
    <linearGradient id="grad2" x1="0%" y1="0%" x2="100%" y2="100%">
      <stop offset="0%" style="stop-color:#10b981;stop-opacity:1" />
      <stop offset="100%" style="stop-color:#059669;stop-opacity:1" />
    </linearGradient>
  </defs>
  
  <!-- Hintergrund -->
  <rect width="512" height="512" rx="80" fill="url(#grad1)"/>
  
  <!-- Häkelnadel -->
  <rect x="200" y="50" width="20" height="350" rx="10" fill="#e5e7eb"/>
  <rect x="195" y="45" width="30" height="30" rx="15" fill="#9ca3af"/>
  <rect x="190" y="380" width="40" height="40" rx="20" fill="#6b7280"/>
  
  <!-- Garn/Wolle -->
  <circle cx="350" cy="150" r="80" fill="url(#grad2)"/>
  <circle cx="350" cy="150" r="60" fill="#f3f4f6"/>
  <circle cx="350" cy="150" r="40" fill="url(#grad2)"/>
  
  <!-- Häkelarbeit/Muster -->
  <path d="M 100 300 Q 150 250 200 300 Q 250 350 300 300 Q 350 250 400 300 Q 450 350 500 300" 
        stroke="#f59e0b" stroke-width="8" fill="none"/>
  <path d="M 100 350 Q 150 300 200 350 Q 250 400 300 350 Q 350 300 400 350 Q 450 400 500 350" 
        stroke="#f59e0b" stroke-width="8" fill="none"/>
  <path d="M 100 400 Q 150 350 200 400 Q 250 450 300 400 Q 350 350 400 400 Q 450 450 500 400" 
        stroke="#f59e0b" stroke-width="8" fill="none"/>
  
  <!-- Maschen-Symbole -->
  <text x="120" y="480" font-family="Arial, sans-serif" font-size="40" font-weight="bold" fill="white">🧶</text>
  <text x="200" y="480" font-family="Arial, sans-serif" font-size="30" font-weight="bold" fill="white">+</text>
  <text x="250" y="480" font-family="Arial, sans-serif" font-size="30" font-weight="bold" fill="white">|</text>
  <text x="300" y="480" font-family="Arial, sans-serif" font-size="30" font-weight="bold" fill="white">o</text>
  
  <!-- App-Name -->
  <text x="50" y="40" font-family="Arial, sans-serif" font-size="24" font-weight="bold" fill="white">Häkel</text>
  <text x="380" y="40" font-family="Arial, sans-serif" font-size="24" font-weight="bold" fill="white">Rechner</text>
</svg>
